<svg width="54" height="54" viewBox="0 0 54 54" fill="none" xmlns="http://www.w3.org/2000/svg">
<circle cx="27" cy="27" r="27" fill="#557705"/>
<path fill-rule="evenodd" clip-rule="evenodd" d="M15.6246 26.86C15.6129 27.0665 15.6421 27.315 15.7004 27.8143L16.1683 31.8137C16.3515 33.3798 17.1035 34.8241 18.2815 35.8724C19.4594 36.9206 20.9813 37.4998 22.5581 37.5H26.7744C28.0135 37.4999 29.2261 37.1421 30.2667 36.4694C31.3073 35.7968 32.1316 34.8381 32.6404 33.7083H35.1663C36.3266 33.7083 37.4394 33.2474 38.2599 32.4269C39.0803 31.6065 39.5413 30.4937 39.5413 29.3333C39.5413 28.173 39.0803 27.0602 38.2599 26.2397C37.4394 25.4193 36.3266 24.9583 35.1663 24.9583H32.5074C32.2829 24.8336 32.0393 24.7469 31.7864 24.7017C31.5834 24.6667 31.3314 24.6667 30.8298 24.6667H18.5028C18.0011 24.6667 17.7503 24.6667 17.5473 24.7017C17.0313 24.7935 16.5613 25.0564 16.2129 25.4479C15.8645 25.8394 15.6581 26.3369 15.6269 26.86H15.6246ZM33.6928 26.7083C33.6986 26.7585 33.7044 26.8098 33.7068 26.86C33.7184 27.0665 33.6904 27.315 33.6321 27.8143L33.1643 31.8137L33.1456 31.9583H35.1663C35.8625 31.9583 36.5301 31.6818 37.0224 31.1895C37.5147 30.6972 37.7913 30.0295 37.7913 29.3333C37.7913 28.6371 37.5147 27.9695 37.0224 27.4772C36.5301 26.9849 35.8625 26.7083 35.1663 26.7083H33.6928ZM25.2846 14.715C25.4485 14.8791 25.5405 15.1015 25.5405 15.3333C25.5405 15.5652 25.4485 15.7876 25.2846 15.9517C25.1396 16.0973 25.0581 16.2945 25.0581 16.5C25.0581 16.7055 25.1396 16.9027 25.2846 17.0483C25.7579 17.5218 26.0239 18.1639 26.0239 18.8333C26.0239 19.5028 25.7579 20.1449 25.2846 20.6183C25.1187 20.7729 24.8993 20.857 24.6727 20.853C24.446 20.849 24.2297 20.7572 24.0694 20.5969C23.9091 20.4366 23.8172 20.2203 23.8132 19.9936C23.8092 19.7669 23.8934 19.5475 24.0479 19.3817C24.3513 19.0783 24.3513 18.5883 24.0479 18.285C23.5746 17.8116 23.3087 17.1695 23.3087 16.5C23.3087 15.8305 23.5746 15.1885 24.0479 14.715C24.212 14.5511 24.4344 14.4591 24.6663 14.4591C24.8981 14.4591 25.1205 14.5511 25.2846 14.715ZM20.0346 16.465C20.1985 16.6291 20.2905 16.8515 20.2905 17.0833C20.2905 17.3152 20.1985 17.5376 20.0346 17.7017L19.8993 17.837C19.7618 17.9743 19.6786 18.1566 19.6649 18.3504C19.6512 18.5442 19.7079 18.7364 19.8246 18.8917C20.1938 19.384 20.3729 19.993 20.3292 20.6068C20.2855 21.2206 20.0218 21.798 19.5866 22.233L19.4513 22.3683C19.2854 22.5229 19.066 22.607 18.8393 22.603C18.6126 22.599 18.3964 22.5072 18.236 22.3469C18.0757 22.1866 17.9839 21.9703 17.9799 21.7436C17.9759 21.5169 18.06 21.2975 18.2146 21.1317L18.3499 20.9963C18.4874 20.859 18.5706 20.6767 18.5843 20.483C18.598 20.2892 18.5413 20.097 18.4246 19.9417C18.0554 19.4493 17.8763 18.8404 17.92 18.2266C17.9637 17.6128 18.2274 17.0354 18.6626 16.6003L18.7979 16.465C18.962 16.3011 19.1844 16.2091 19.4163 16.2091C19.6481 16.2091 19.8705 16.3011 20.0346 16.465ZM31.1179 16.465C31.2818 16.6291 31.3738 16.8515 31.3738 17.0833C31.3738 17.3152 31.2818 17.5376 31.1179 17.7017L30.9826 17.837C30.8452 17.9743 30.7619 18.1566 30.7482 18.3504C30.7345 18.5442 30.7912 18.7364 30.9079 18.8917C31.2771 19.384 31.4563 19.993 31.4125 20.6068C31.3688 21.2206 31.1051 21.798 30.6699 22.233L30.5346 22.3683C30.4545 22.4543 30.3579 22.5233 30.2506 22.5711C30.1432 22.6189 30.0274 22.6446 29.9099 22.6467C29.7924 22.6488 29.6757 22.6272 29.5667 22.5831C29.4578 22.5391 29.3588 22.4736 29.2757 22.3905C29.1926 22.3075 29.1271 22.2085 29.0831 22.0995C29.0391 21.9906 29.0175 21.8739 29.0196 21.7564C29.0217 21.6389 29.0474 21.523 29.0952 21.4157C29.143 21.3084 29.212 21.2118 29.2979 21.1317L29.4333 20.9963C29.5707 20.859 29.6539 20.6767 29.6677 20.483C29.6814 20.2892 29.6247 20.097 29.5079 19.9417C29.1388 19.4493 28.9596 18.8404 29.0033 18.2266C29.0471 17.6128 29.3107 17.0354 29.7459 16.6003L29.8813 16.465C30.0453 16.3011 30.2677 16.2091 30.4996 16.2091C30.7315 16.2091 30.9539 16.3011 31.1179 16.465Z" fill="white"/>
</svg>
