<svg width="116" height="67" viewBox="0 0 116 67" fill="none" xmlns="http://www.w3.org/2000/svg">
<g clip-path="url(#clip0_311_5018)">
<path d="M47.8803 0.349995C47.1903 1.01999 47.5103 2.44999 48.5803 3.53999C49.6503 4.62999 51.0803 4.96999 51.7603 4.28999C52.4503 3.61999 52.1303 2.18999 51.0703 1.09999C50.0003 0.00999451 48.5803 -0.330005 47.8903 0.349995H47.8803Z" fill="#FA8288"/>
<path d="M98.6997 59.1C97.6597 61.12 95.9897 62.73 93.9297 63.69C94.4397 64.77 94.9397 65.85 95.4397 66.93C98.2197 65.64 100.48 63.46 101.88 60.73C100.82 60.19 99.7597 59.64 98.6997 59.1Z" fill="#FDC84E"/>
<path d="M79.9505 7.29998C78.1505 7.71998 76.3205 7.86998 74.4805 7.75998C74.5105 9.14998 74.5505 10.54 74.5805 11.93C76.5905 12.05 78.6005 11.88 80.5605 11.42C80.3605 10.04 80.1605 8.66998 79.9505 7.28998V7.29998Z" fill="#FDC063"/>
<path d="M3.91 38.73C4.41 40.5 5.16 42.18 6.15 43.74C4.92 44.38 3.68 45.03 2.45 45.68C1.37 43.98 0.55 42.14 0 40.2C1.3 39.71 2.61 39.22 3.91 38.73Z" fill="#8DD5F0"/>
<path d="M76.6804 30.26C74.8704 30.63 73.1503 31.26 71.5203 32.13C70.9703 30.85 70.4104 29.58 69.8604 28.3C71.6404 27.35 73.5304 26.67 75.5004 26.26C75.8904 27.6 76.2804 28.93 76.6804 30.27V30.26Z" fill="#FA8288"/>
<path d="M104.82 19.12C104.16 20.01 103.03 21.07 102.21 21.98C102.6 21.58 101.92 22.55 101.85 22.7C101.65 23.13 101.53 23.59 101.48 24.06C101.38 25.11 101.6 26.18 101.64 27.23C101.66 27.76 101.64 28.28 101.58 28.81C101.14 28.89 100.68 28.9 100.24 28.86C99.3004 28.78 98.3804 28.5 97.5104 28.16C97.1504 28.02 95.8404 27.22 95.5104 27.38C95.1604 27.55 94.8904 28 94.6604 28.3C94.4804 28.54 93.3104 30.46 92.9404 30.3C94.9204 31.16 97.8804 32.56 99.9804 31.33C100.88 30.81 101.56 29.94 102.26 29.19C103.05 28.33 103.8 27.42 104.15 26.28C104.53 25.02 104.36 23.78 104.22 22.5C104.15 21.89 104.11 21.27 104.2 20.66C104.75 20.42 105.33 20.23 105.91 20.05C106.92 19.73 108.09 19.47 108.79 18.62C109.39 17.89 109.79 16.77 110.7 16.34C108.63 17.31 106.54 17.43 104.83 19.12H104.82Z" fill="#8BDDC3"/>
<path d="M104.191 20.73C103.461 21.01 102.841 21.42 102.251 21.93C102.241 21.94 102.221 21.96 102.211 21.97C102.601 21.57 101.921 22.54 101.851 22.69C101.651 23.12 101.531 23.58 101.481 24.05C101.381 25.1 101.601 26.17 101.641 27.22C101.661 27.75 101.641 28.27 101.581 28.8C101.511 28.81 101.451 28.82 101.391 28.83C101.451 28.83 101.511 28.83 101.571 28.82C101.851 28.76 102.131 28.66 102.381 28.53C102.741 28.34 103.061 28.09 103.371 27.83C103.701 27.36 103.971 26.85 104.151 26.28C104.531 25.02 104.361 23.78 104.221 22.5C104.161 21.92 104.121 21.32 104.191 20.74V20.73Z" fill="#76C9AD"/>
<path d="M7.18 21.44C8.08 22.08 9.17 23.18 10.1 23.98C9.69 23.6 10.68 24.26 10.83 24.32C11.26 24.51 11.72 24.62 12.19 24.65C13.24 24.73 14.31 24.48 15.35 24.41C15.88 24.38 16.4 24.38 16.93 24.43C17.02 24.87 17.04 25.32 17.01 25.77C16.95 26.71 16.69 27.63 16.38 28.52C16.25 28.88 15.48 30.21 15.65 30.54C15.83 30.88 16.28 31.14 16.59 31.37C16.84 31.55 18.78 32.67 18.63 33.04C19.45 31.04 20.77 28.04 19.49 25.98C18.94 25.09 18.06 24.43 17.29 23.75C16.41 22.98 15.48 22.25 14.34 21.93C13.07 21.58 11.83 21.79 10.56 21.96C9.95 22.04 9.33 22.1 8.72 22.02C8.47 21.47 8.27 20.9 8.07 20.32C7.73 19.32 7.44 18.16 6.57 17.48C5.82 16.9 4.7 16.52 4.25 15.63C5.27 17.67 5.44 19.76 7.18 21.43V21.44Z" fill="#8BDDC3"/>
<path d="M8.8098 22.03C9.1098 22.76 9.5298 23.36 10.0598 23.94C10.0698 23.95 10.0898 23.96 10.0998 23.98C9.6898 23.6 10.6798 24.26 10.8298 24.32C11.2598 24.51 11.7198 24.62 12.1898 24.65C13.2398 24.73 14.3098 24.48 15.3498 24.41C15.8798 24.38 16.3998 24.38 16.9298 24.43C16.9398 24.5 16.9498 24.56 16.9598 24.62C16.9598 24.56 16.9598 24.5 16.9398 24.44C16.8698 24.17 16.7698 23.88 16.6298 23.63C16.4298 23.27 16.1798 22.96 15.9098 22.66C15.4298 22.34 14.9098 22.08 14.3398 21.92C13.0698 21.57 11.8298 21.78 10.5598 21.95C9.9798 22.03 9.3898 22.08 8.7998 22.02L8.8098 22.03Z" fill="#76C9AD"/>
<path d="M25.7998 0.0599976C30.0798 2.97 35.2298 8.56 34.4098 14.25C34.4298 14.12 36.8498 14.29 37.0198 14.29C38.7898 14.29 36.5398 8.92 36.1798 8.18C34.8598 5.5 33.0598 3.24 30.7198 1.38C28.5898 -0.320002 27.4098 1.15 25.8098 0.0599976H25.7998Z" fill="#FA8288"/>
<path d="M9.67031 61.34C9.67031 62.44 9.62031 63.57 9.90031 63.77C10.2103 63.99 11.2203 63.23 12.1203 62.47C13.4303 62.99 14.9503 63.66 15.2103 63.39C15.4703 63.13 14.7303 61.68 14.1703 60.4C14.9903 59.4 15.7003 58.25 15.4403 57.88C15.2103 57.56 14.0603 57.69 12.8303 57.74C11.9803 56.24 11.1303 55.25 10.8203 55.37C10.4703 55.5 10.1303 56.56 9.91031 58.07C8.18031 58.37 7.07031 58.99 7.07031 59.39C7.07031 59.78 8.05031 60.5 9.67031 61.34Z" fill="#8BDDC3"/>
<path d="M39.1701 31.76C38.9801 32.76 38.7201 33.8 38.9801 33.93C39.2601 34.08 40.4301 33.21 41.4901 32.36C42.7501 32.61 44.1901 32.95 44.5101 32.66C44.8201 32.38 44.3101 31.19 43.9601 30.12C44.9801 29.07 45.9101 27.9 45.7001 27.61C45.5201 27.36 44.3101 27.68 43.0401 27.94C42.4301 26.73 41.7201 25.98 41.3901 26.14C41.0001 26.32 40.4701 27.34 39.9801 28.75C38.1501 29.32 36.9001 30.08 36.8301 30.44C36.7501 30.8 37.6501 31.28 39.1701 31.76Z" fill="#FDC063"/>
<path d="M109.6 48.65C109.55 49.73 109.44 50.83 109.71 51.04C110.01 51.27 111.02 50.59 111.93 49.9C113.18 50.49 114.63 51.23 114.9 50.99C115.16 50.75 114.51 49.28 114.03 48C114.88 47.07 115.62 45.98 115.38 45.61C115.17 45.28 114.04 45.34 112.85 45.32C112.09 43.8 111.31 42.79 111 42.88C110.65 42.99 110.27 44 109.99 45.47C108.29 45.66 107.18 46.21 107.16 46.59C107.13 46.97 108.07 47.74 109.6 48.65Z" fill="#8DD5F0"/>
</g>
<defs>
<clipPath id="clip0_311_5018">
<rect width="115.42" height="66.93" fill="white"/>
</clipPath>
</defs>
</svg>
