<svg width="130" height="128" viewBox="0 0 130 128" fill="none" xmlns="http://www.w3.org/2000/svg">
<path d="M83.2961 58.6537V68.0246C83.2961 72.4105 81.5669 76.6168 78.489 79.718C75.411 82.8193 71.2364 84.5616 66.8835 84.5616H61.4126C57.0597 84.5616 52.8851 82.8193 49.8071 79.718C46.7292 76.6168 45 72.4105 45 68.0246V58.6537C45 58.2151 45.1729 57.7945 45.4807 57.4844C45.7885 57.1742 46.206 57 46.6413 57H81.6549C82.0901 57 82.5076 57.1742 82.8154 57.4844C83.1232 57.7945 83.2961 58.2151 83.2961 58.6537Z" stroke="white" stroke-width="2" stroke-linecap="round" stroke-linejoin="round"/>
<path d="M80.6855 57H86.3429C87.8434 57 89.2823 57.596 90.3433 58.657C91.4043 59.718 92.0003 61.1569 92.0003 62.6574C92.0003 64.1578 91.4043 65.5968 90.3433 66.6578C89.2823 67.7187 87.8434 68.3148 86.3429 68.3148H83.2966" stroke="white" stroke-width="2" stroke-linecap="round" stroke-linejoin="round"/>
<path d="M71.75 35.25C62.3 37.35 60.095 43.8285 57.911 49.257L59.8955 49.95L60.893 47.535C61.397 47.7135 61.922 47.85 62.3 47.85C73.85 47.85 77 30 77 30C75.95 32.1 68.6 32.3625 63.35 33.4125C58.1 34.4625 56 38.925 56 41.025C56 43.125 57.8375 44.9625 57.8375 44.9625C61.25 35.25 71.75 35.25 71.75 35.25Z" fill="white"/>
<path d="M11.5359 122H13.7359C14.3299 122 14.9239 121.846 15.3419 121.318C15.9579 121.714 16.5739 122.022 17.1679 122.11C18.8839 122.396 22.2499 121.846 23.5259 120.592C25.5059 118.634 25.6819 115.356 25.6819 112.606C25.6819 109.416 23.8559 106.6 19.1259 106.6H11.0519V107.568H12.0419C12.4159 107.568 12.6359 107.744 12.5919 108.184L11.5359 122ZM18.0919 107.546C19.8519 107.546 21.2379 108.602 21.2379 112.078C21.2379 114.652 21.1719 117.072 20.4899 118.766C19.8079 120.482 18.7739 121.428 17.1459 121.054C16.5739 120.834 16.1559 120.636 15.8259 120.416C15.8919 120.196 15.9579 119.954 16.0019 119.668L16.9039 107.546H18.0919ZM36.838 120.702C36.772 121.362 37.3 122 38.136 122H48.784V120.922H41.282L41.788 114.432H47.97V113.398H41.876L42.338 107.656H49.202V106.6H36.266V107.568H37.366C37.586 107.568 37.85 107.678 37.806 108.118L36.838 120.702ZM65.4722 122.286C69.9382 122.22 71.8742 120.196 72.6662 118.854L72.3142 118.392C71.5662 119.294 68.8822 119.822 67.6722 119.69C65.3842 119.47 63.8662 117.93 63.7122 115.356C63.4922 110.45 65.6482 107.436 68.0462 107.304C68.7722 107.282 70.0922 107.392 70.3122 107.546L71.4122 110.89H71.7422L73.3262 107.414C72.5562 106.666 69.6082 106.226 67.8922 106.314C63.1622 106.578 59.3342 109.13 59.3342 115.796C59.3342 119.734 62.2382 122.33 65.4722 122.286ZM90.2072 115.4H86.5552L88.7112 109.636L90.2072 115.4ZM86.1592 116.39H90.5372L91.5932 120.35C91.8352 121.164 92.4292 122.33 93.7932 122.33C95.0032 122.33 96.8732 121.648 98.4352 119.8L98.0832 119.294C96.8072 120.152 95.9272 119.998 95.5752 118.788L92.4292 107.964C92.1872 107.216 91.6812 106.6 91.0212 106.6H88.7112L83.5632 120.086C83.2112 120.856 82.9692 120.988 82.2872 120.988H81.6712V122H85.9612V120.988H85.3892C84.7072 120.988 84.5752 120.592 84.7952 120.174L86.1592 116.39ZM108.247 121.164C108.225 121.934 108.753 122.286 109.721 122.286C111.085 122.286 112.713 121.714 112.823 120.504L113.241 114.762H119.423V113.728H113.351L113.835 107.656H120.413V106.6H107.697V107.568H108.709C108.973 107.568 109.281 107.678 109.237 108.118L108.247 121.164Z" fill="#FAFEF1"/>
<path d="M9.53939 81.8944L9.9969 83.4777L5.10712 84.8945L4.63511 83.261C4.49664 82.7818 4.47561 82.3419 4.57203 81.9413C4.66685 81.5412 4.87006 81.1967 5.18166 80.908C5.49121 80.6182 5.89986 80.3997 6.40762 80.2526C6.91697 80.105 7.38161 80.0713 7.80153 80.1515C8.221 80.2301 8.58002 80.4159 8.8786 80.709C9.17559 81.0025 9.39585 81.3976 9.53939 81.8944ZM9.13902 82.9265L8.90647 82.1218C8.79882 81.7492 8.6393 81.4599 8.42793 81.2537C8.21496 81.0479 7.95706 80.9225 7.65422 80.8774C7.3498 80.8328 7.00419 80.8665 6.6174 80.9786C6.2338 81.0897 5.926 81.2453 5.69401 81.4454C5.46157 81.6439 5.31083 81.8834 5.24182 82.1639C5.17281 82.4444 5.18982 82.763 5.29287 83.1196L5.53854 83.9698L9.13902 82.9265Z" fill="#E7EFD4"/>
<path d="M7.6088 73.2854L2.54848 73.8427L2.20005 70.67L2.8573 70.5976L3.12188 73.0068L4.66369 72.837L4.4173 70.5934L5.07207 70.5213L5.31847 72.7649L6.8677 72.5943L6.59986 70.1555L7.25711 70.0831L7.6088 73.2854Z" fill="#E7EFD4"/>
<path d="M3.85673 59.3715L3.80828 60.1455C3.64102 60.1649 3.492 60.2112 3.36123 60.2843C3.23046 60.3575 3.11757 60.45 3.02256 60.562C2.92755 60.6739 2.85316 60.8012 2.79939 60.944C2.74573 61.0851 2.71382 61.2367 2.70368 61.3987C2.68535 61.6915 2.74254 61.9583 2.87525 62.1991C3.00806 62.4382 3.21251 62.6337 3.4886 62.7855C3.7648 62.9357 4.10799 63.0236 4.51816 63.0494C4.93165 63.0753 5.28477 63.0311 5.57753 62.9166C5.8704 62.8005 6.09685 62.6312 6.25689 62.4088C6.41693 62.1864 6.50601 61.9305 6.52413 61.641C6.53417 61.4806 6.5222 61.3271 6.4882 61.1805C6.45265 61.0321 6.39555 60.8965 6.3169 60.7737C6.23825 60.6509 6.13943 60.5451 6.02046 60.4562C5.89994 60.3656 5.75962 60.2995 5.5995 60.2579L5.65043 59.4841C5.89759 59.5411 6.12246 59.6357 6.32506 59.768C6.52611 59.8985 6.69691 60.0612 6.83748 60.256C6.9765 60.449 7.07995 60.6664 7.14784 60.9081C7.21574 61.1498 7.24093 61.4104 7.22344 61.6899C7.1959 62.1299 7.06716 62.5153 6.83723 62.8463C6.60565 63.1771 6.28848 63.4295 5.88572 63.6035C5.48307 63.7758 5.01133 63.845 4.47049 63.811C3.928 63.777 3.46862 63.6485 3.09237 63.4257C2.71446 63.2027 2.43208 62.9126 2.24522 62.5555C2.0567 62.1983 1.97616 61.8006 2.0036 61.3623C2.02047 61.0927 2.07508 60.8437 2.16741 60.6154C2.25819 60.3853 2.38386 60.1815 2.54441 60.0039C2.70331 59.8263 2.89327 59.6829 3.11429 59.5739C3.33366 59.4648 3.58114 59.3973 3.85673 59.3715Z" fill="#E7EFD4"/>
<path d="M8.30687 52.9869L8.11748 53.78L3.59209 50.8125L3.79822 49.9493L9.1747 49.353L8.98531 50.146L4.59936 50.5757L4.59012 50.6144L8.30687 52.9869ZM6.39983 52.3897L7.01419 49.8171L7.64272 49.9676L7.02837 52.5402L6.39983 52.3897Z" fill="#E7EFD4"/>
<path d="M10.8697 44.2791L6.179 42.3006L7.40307 39.3906L8.01232 39.6475L7.08607 41.8495L8.51527 42.4523L9.35381 40.4589L9.96076 40.7149L9.12222 42.7084L11.1675 43.5711L10.8697 44.2791Z" fill="#E7EFD4"/>
<path d="M14.9824 35.7099L10.6779 32.9918L12.3601 30.3204L12.9192 30.6734L11.6463 32.6949L12.9578 33.523L14.1102 31.693L14.6672 32.0447L13.5148 33.8747L15.3917 35.0599L14.9824 35.7099Z" fill="#E7EFD4"/>
<path d="M20.4374 27.9276L16.6343 24.5432L18.7529 22.156L19.2469 22.5956L17.6381 24.4083L18.7969 25.4395L20.2951 23.7513L20.7872 24.1892L19.289 25.8774L20.4533 26.9135L22.0818 25.0785L22.5758 25.5181L20.4374 27.9276Z" fill="#E7EFD4"/>
<path d="M24.4233 16.7609L27.7194 20.6407L27.1347 21.1388L23.8386 17.259L24.4233 16.7609Z" fill="#E7EFD4"/>
<path d="M33.1361 10.5755L35.8263 14.8976L35.2274 15.2714L31.0592 13.4717L31.0191 13.4968L32.9921 16.6665L32.3405 17.0732L29.6503 12.7512L30.2534 12.3748L34.4264 14.1773L34.4664 14.1523L32.4908 10.9783L33.1361 10.5755Z" fill="#E7EFD4"/>
<path d="M41.8829 11.8333L41.1275 12.14L40.9141 6.73206L41.7363 6.39819L45.3446 10.4276L44.5891 10.7344L41.6919 7.41428L41.655 7.42924L41.8829 11.8333ZM41.2613 9.93398L43.7119 8.93889L43.9545 9.53794L41.5039 10.533L41.2613 9.93398Z" fill="#E7EFD4"/>
<path d="M49.2333 4.59519L49.0884 3.95005L52.932 3.08406L53.077 3.7292L51.5274 4.07833L52.4985 8.40026L51.7516 8.56854L50.7805 4.24661L49.2333 4.59519Z" fill="#E7EFD4"/>
<path d="M59.8059 7.23642L59.5144 2.15387L62.7009 1.97059L62.7388 2.63072L60.3191 2.7699L60.4079 4.31849L62.6613 4.18888L62.699 4.84653L60.4457 4.97614L60.5349 6.53218L62.9843 6.39129L63.0222 7.05143L59.8059 7.23642Z" fill="#E7EFD4"/>
<path d="M70.9265 7.33183L69.2893 7.14312L69.8722 2.0857L71.5613 2.28038C72.0568 2.3375 72.4707 2.4878 72.803 2.73128C73.1354 2.97312 73.3746 3.29344 73.5205 3.69227C73.6682 4.08964 73.7118 4.5509 73.6512 5.07607C73.5905 5.60289 73.442 6.04452 73.2058 6.40097C72.9711 6.7576 72.661 7.01712 72.2753 7.17952C71.8897 7.34026 71.4402 7.39104 70.9265 7.33183ZM70.1292 6.56432L70.9614 6.66024C71.3466 6.70465 71.6752 6.66912 71.947 6.55365C72.2191 6.43655 72.4345 6.24701 72.5931 5.98504C72.7519 5.72143 72.8544 5.3896 72.9005 4.98955C72.9462 4.59279 72.9217 4.24881 72.8268 3.95763C72.7335 3.66663 72.5709 3.43519 72.3388 3.26331C72.1067 3.09142 71.8063 2.98423 71.4375 2.94173L70.5584 2.8404L70.1292 6.56432Z" fill="#E7EFD4"/>
<path d="M91.1727 9.43167L90.4615 9.12228C90.5001 8.95835 90.5072 8.80242 90.4829 8.65449C90.4585 8.50655 90.4099 8.36883 90.337 8.24131C90.264 8.1138 90.1696 8.00043 90.0537 7.90121C89.9393 7.80265 89.8076 7.72097 89.6587 7.65619C89.3897 7.53917 89.1195 7.50204 88.8481 7.5448C88.5781 7.58821 88.3249 7.71389 88.0884 7.92183C87.8533 8.13044 87.6541 8.42325 87.4905 8.80028C87.3256 9.18036 87.2472 9.52758 87.2553 9.84196C87.265 10.157 87.3472 10.4277 87.5019 10.654C87.6566 10.8804 87.8669 11.0514 88.1328 11.1671C88.2802 11.2312 88.4286 11.2722 88.578 11.2902C88.7295 11.3074 88.8764 11.2999 89.0186 11.2677C89.1607 11.2356 89.2938 11.1788 89.4177 11.0971C89.5438 11.0146 89.6536 10.9052 89.7472 10.7688L90.4574 11.0804C90.3198 11.2935 90.1544 11.4727 89.9612 11.6182C89.7702 11.7628 89.5593 11.868 89.3284 11.9339C89.0997 11.9988 88.8602 12.022 88.6099 12.0035C88.3596 11.985 88.1061 11.9199 87.8493 11.8082C87.445 11.6323 87.1264 11.3799 86.8935 11.0508C86.6612 10.7202 86.5316 10.3359 86.5049 9.89774C86.4798 9.46028 86.575 8.99299 86.7907 8.49585C87.007 7.9972 87.2839 7.6089 87.6212 7.33097C87.9592 7.05151 88.3278 6.88475 88.727 6.8307C89.1269 6.77513 89.5282 6.83494 89.9309 7.01013C90.1786 7.11789 90.394 7.2541 90.5773 7.41877C90.7627 7.58257 90.9117 7.77024 91.024 7.98177C91.137 8.19178 91.2072 8.4193 91.2346 8.66434C91.2626 8.90786 91.242 9.16363 91.1727 9.43167Z" fill="#E7EFD4"/>
<path d="M100.379 15.8815C100.077 16.3333 99.7347 16.6663 99.3521 16.8806C98.9704 17.0936 98.5773 17.191 98.1726 17.173C97.7702 17.1546 97.3867 17.0231 97.022 16.7784C96.6559 16.5329 96.3871 16.2269 96.2155 15.8604C96.0463 15.4935 95.9878 15.0921 96.0401 14.6562C96.0923 14.2204 96.2691 13.7772 96.5704 13.3268C96.8726 12.875 97.2145 12.5426 97.5962 12.3297C97.9788 12.1154 98.3713 12.0174 98.7736 12.0359C99.1783 12.0539 99.5637 12.1856 99.9298 12.4312C100.294 12.6758 100.561 12.9816 100.731 13.3485C100.902 13.715 100.962 14.1162 100.91 14.552C100.858 14.9865 100.682 15.4296 100.379 15.8815ZM99.7476 15.4578C99.9779 15.1134 100.116 14.786 100.162 14.4757C100.211 14.165 100.179 13.8843 100.067 13.6339C99.958 13.383 99.7823 13.1763 99.54 13.0138C99.2964 12.8504 99.038 12.7659 98.7647 12.7602C98.4923 12.7531 98.2211 12.8306 97.9512 12.9928C97.6835 13.1545 97.4345 13.4075 97.2042 13.7519C96.9738 14.0962 96.8345 14.4238 96.7861 14.7346C96.7401 15.0449 96.7717 15.3255 96.881 15.5764C96.9912 15.8259 97.1681 16.0324 97.4117 16.1958C97.6539 16.3582 97.9113 16.443 98.1836 16.4501C98.4583 16.4568 98.7295 16.3792 98.9971 16.2175C99.2671 16.0554 99.5172 15.8021 99.7476 15.4578Z" fill="#E7EFD4"/>
<path d="M103.668 21.7987L107.182 18.1143L109.463 20.296L109.007 20.7746L107.28 19.1237L106.21 20.2463L107.773 21.7408L107.319 22.2176L105.755 20.723L104.224 22.3296L103.668 21.7987Z" fill="#E7EFD4"/>
<path d="M110.201 28.6983L114.268 25.6368L116.164 28.1616L115.635 28.5592L114.201 26.6487L112.962 27.5815L114.26 29.3111L113.734 29.7073L112.436 27.9777L110.662 29.3126L110.201 28.6983Z" fill="#E7EFD4"/>
<path d="M115.522 36.5727L120.035 34.2164L121.509 37.0474L120.923 37.3534L119.803 35.2037L118.428 35.9217L119.471 37.9236L118.887 38.2285L117.844 36.2266L116.463 36.9479L117.596 39.1241L117.01 39.4301L115.522 36.5727Z" fill="#E7EFD4"/>
<path d="M119.488 45.2107L124.325 43.6233L125.318 46.6567L124.689 46.8629L123.936 44.5595L122.462 45.0432L123.164 47.1883L122.538 47.3937L121.836 45.2486L120.355 45.7346L121.118 48.0663L120.49 48.2725L119.488 45.2107Z" fill="#E7EFD4"/>
<path d="M122.857 61.4152L122.826 60.6005L127.983 62.2375L128.017 63.1242L122.999 65.1487L122.968 64.3339L127.076 62.7372L127.075 62.6974L122.857 61.4152ZM124.854 61.476L124.955 64.119L124.309 64.1436L124.209 61.5006L124.854 61.476Z" fill="#E7EFD4"/>
<path d="M122.732 70.4922L127.782 71.1324L127.554 72.9327C127.505 73.3257 127.392 73.6421 127.216 73.8821C127.041 74.1221 126.821 74.2905 126.556 74.3873C126.293 74.4843 126.007 74.5132 125.698 74.474C125.388 74.4346 125.116 74.3342 124.885 74.1729C124.654 74.0133 124.483 73.7945 124.371 73.5164C124.261 73.2402 124.23 72.9064 124.28 72.5151L124.436 71.2771L125.082 71.359L124.935 72.528C124.903 72.7762 124.921 72.983 124.986 73.1484C125.054 73.314 125.158 73.4425 125.299 73.5338C125.439 73.6251 125.605 73.6828 125.795 73.707C125.986 73.7312 126.16 73.7165 126.317 73.6629C126.474 73.6093 126.605 73.5097 126.708 73.3642C126.811 73.2202 126.879 73.0217 126.911 72.7685L127.032 71.8116L122.635 71.2542L122.732 70.4922Z" fill="#E7EFD4"/>
<path d="M121.075 79.8537L125.953 81.3106L125.435 83.0497C125.321 83.4293 125.159 83.7232 124.946 83.9313C124.734 84.1394 124.489 84.2695 124.213 84.3218C123.938 84.3746 123.651 84.3564 123.352 84.2672C123.052 84.1776 122.801 84.0342 122.598 83.8371C122.397 83.6421 122.264 83.3982 122.199 83.1056C122.135 82.815 122.16 82.4807 122.272 82.1026L122.628 80.9067L123.252 81.0931L122.916 82.2223C122.845 82.4621 122.828 82.669 122.866 82.843C122.906 83.0174 122.987 83.1612 123.111 83.2742C123.235 83.3872 123.389 83.4713 123.573 83.5263C123.757 83.5813 123.931 83.5952 124.095 83.568C124.259 83.5408 124.403 83.4639 124.529 83.3372C124.655 83.212 124.754 83.0272 124.827 82.7826L125.102 81.8583L120.855 80.5899L121.075 79.8537Z" fill="#E7EFD4"/>
</svg>
